<svg xmlns="http://www.w3.org/2000/svg" xml:space="preserve" width="3186" height="573" overflow="hidden"><g stroke-miterlimit="8"><path fill="rgba(19,127,250,0.308)" fill-rule="evenodd" stroke="#137ffa" stroke-width="25.2" d="M962 139v299h96v-30c0-2 1-5-2-6-16-5-34-10-48-20-9-6-15-15-16-25-2-12-2-24-2-36v-82c5 2 10 6 14 9l124 88c5 0 11 1 16-1l136-109 14-11v129c0 15 1 33-11 45s-30 15-47 19l1 36 94-6c7-1 15 0 22-2l-1-306c-6 0-14-3-19 3l-165 132c-1 2-3 2-5 1l-150-107-30-20h-21Z"/><path fill="none" stroke="#137ffa" stroke-width="24.1" d="M1911 214h238v58h-238v-58Zm587-29c-16 0-31 5-44 14a109 109 0 0 0-43 87c0 19 4 36 12 51s18 27 31 37c13 9 28 14 44 14h77c16 0 31-5 44-14 13-10 23-22 31-37s12-32 12-50c0-19-4-36-12-51s-18-27-31-37c-13-9-28-14-44-14h-77Zm264-57h50v159c0 18 4 35 12 50 7 15 18 27 31 37 13 9 27 13 43 14h45V128h50v260h44c16-1 31-5 44-14 13-10 24-22 31-37 8-15 12-32 12-51V129h50v159a177 177 0 0 1-40 112c-12 14-27 26-43 34-17 8-35 12-54 12h-139c-19 0-36-4-53-12-16-8-31-20-43-34a165 165 0 0 1-40-112V128Zm-264 0h77c19 0 37 4 53 12 17 8 31 20 44 34a176 176 0 0 1 40 112 176 176 0 0 1-40 113c-13 14-27 26-44 34-16 8-34 12-53 12h-77c-19 0-37-4-54-12-16-8-31-20-43-34-13-15-23-32-30-51s-10-40-10-61a177 177 0 0 1 40-113c12-14 27-26 43-34 17-8 35-12 54-12Zm-1033 0h200c17 0 31 4 44 13 14 9 24 21 32 37 8 15 12 32 12 51v216h-251c-16 0-30-4-44-13-13-9-24-21-32-37-7-15-11-32-11-51s4-36 11-51c8-15 19-27 32-36 14-9 28-14 44-14h164v58h-164c-10 0-19 4-26 13-8 8-11 18-11 30s3 22 11 31c7 8 16 13 26 13h201V229c0-12-4-22-11-31-8-8-17-13-27-13h-200v-57Zm-754 0h188v332c0 18-4 35-12 51-8 15-19 27-32 36s-28 14-44 14H611v-58h200c10 0 19-4 27-12 7-9 11-19 11-31V185H711c-16 0-31 5-44 14a109 109 0 0 0-43 87c0 19 4 36 12 51s18 27 31 37c13 9 28 13 44 14h101v57H711c-19 0-37-4-54-12-16-8-31-20-43-34a166 166 0 0 1-40-112 178 178 0 0 1 40-113c12-14 27-26 43-34 17-8 35-12 54-12Zm-242 0h50v317h-50V128Zm1360-87h363v58h-313v346h-50V41ZM112 41h280v58H112c-13 0-25 5-35 17a60 60 0 0 0-15 40c0 16 5 30 15 41 10 12 22 17 35 17h205c18 0 35 5 50 16 15 10 27 24 36 42 9 17 14 37 14 58s-5 40-14 58c-9 17-21 31-36 42a87 87 0 0 1-50 15H12v-57h305c14 0 25-6 35-17 10-12 15-25 15-41s-5-30-15-41a45 45 0 0 0-35-17H112c-18 0-35-5-50-16-15-10-27-24-37-41-9-18-13-37-13-59 0-21 4-40 13-58 10-17 22-31 37-42 15-10 32-15 50-15Zm2123-29h50v332c0 12 3 22 11 31 7 8 16 13 26 13h13v57h-13c-16 0-30-4-44-13-13-9-24-21-32-37-7-15-11-32-11-51V12ZM494 12c11 0 20 4 27 13 7 8 11 18 11 30s-4 22-11 31a34 34 0 0 1-53 0c-8-9-11-19-11-31s3-22 11-30c7-9 16-13 26-13Z"/></g></svg>