<svg xmlns="http://www.w3.org/2000/svg" xmlns:xlink="http://www.w3.org/1999/xlink" xml:space="preserve" width="1964" height="1964" overflow="hidden"><defs><clipPath id="a"><path d="M1799 1396h1237v858H1799z"/></clipPath></defs><path fill="#393C45" fill-rule="evenodd" d="M1022 1495h151v105h-114ZM867 348v219h219ZM219 199h648l438 385v690h-105V672H762V304H324v1191h417l-38 105H219Z"/><path fill="#393C45" fill-rule="evenodd" d="M429 847h666v70H429ZM429 706h228v71H429ZM429 987h666v70H429ZM429 1127h666v70H429ZM429 1267h666v70H965l-23-64H822l-23 64H429Z"/><g clip-path="url(#a)" transform="translate(-1218 -299)"><use xlink:href="#b" width="100%" height="100%" transform="translate(1799 1396)"/></g><path fill="none" stroke="#393C45" stroke-miterlimit="8" stroke-width="42" d="M879 1356c-2 14-4 28-9 41l-55 167h128l-54-166c-4-11-6-25-8-42Zm398-3v154h44c60 0 90-26 90-78 0-51-30-76-89-76Zm313-79h102v478h-102Zm-415 0h165c119 0 178 50 178 151 0 49-18 88-54 118-36 29-81 44-135 42h-52v167h-102Zm-352 0h120l171 478h-111l-36-109H793l-35 109H647Z"/><text x="1865.3" y="1991.5" fill-opacity="0" font-family="Arial,Arial_MSFontService,sans-serif" font-size="478.8" transform="translate(-1218 -299)">API</text></svg>